<?xml version="1.0" standalone="no"?>
<svg xmlns:xlink="http://www.w3.org/1999/xlink" id="wave" style="transform:rotate(0deg); transition: 0.3s" viewBox="0 0 1440 160" version="1.1" xmlns="http://www.w3.org/2000/svg"><defs><linearGradient id="sw-gradient-0" x1="0" x2="0" y1="1" y2="0"><stop stop-color="rgba(52, 90, 176, 1)" offset="0%"/><stop stop-color="rgba(52, 90, 176, 1)" offset="100%"/></linearGradient></defs><path style="transform:translate(0, 0px); opacity:1" fill="url(#sw-gradient-0)" d="M0,0L80,18.7C160,37,320,75,480,80C640,85,800,59,960,56C1120,53,1280,75,1440,88C1600,101,1760,107,1920,109.3C2080,112,2240,112,2400,109.3C2560,107,2720,101,2880,88C3040,75,3200,53,3360,42.7C3520,32,3680,32,3840,48C4000,64,4160,96,4320,93.3C4480,91,4640,53,4800,50.7C4960,48,5120,80,5280,82.7C5440,85,5600,59,5760,48C5920,37,6080,43,6240,48C6400,53,6560,59,6720,56C6880,53,7040,43,7200,40C7360,37,7520,43,7680,56C7840,69,8000,91,8160,93.3C8320,96,8480,80,8640,64C8800,48,8960,32,9120,37.3C9280,43,9440,69,9600,72C9760,75,9920,53,10080,40C10240,27,10400,21,10560,18.7C10720,16,10880,16,11040,29.3C11200,43,11360,69,11440,82.7L11520,96L11520,160L11440,160C11360,160,11200,160,11040,160C10880,160,10720,160,10560,160C10400,160,10240,160,10080,160C9920,160,9760,160,9600,160C9440,160,9280,160,9120,160C8960,160,8800,160,8640,160C8480,160,8320,160,8160,160C8000,160,7840,160,7680,160C7520,160,7360,160,7200,160C7040,160,6880,160,6720,160C6560,160,6400,160,6240,160C6080,160,5920,160,5760,160C5600,160,5440,160,5280,160C5120,160,4960,160,4800,160C4640,160,4480,160,4320,160C4160,160,4000,160,3840,160C3680,160,3520,160,3360,160C3200,160,3040,160,2880,160C2720,160,2560,160,2400,160C2240,160,2080,160,1920,160C1760,160,1600,160,1440,160C1280,160,1120,160,960,160C800,160,640,160,480,160C320,160,160,160,80,160L0,160Z"/></svg>