<?xml version="1.0" standalone="no"?>
<svg xmlns:xlink="http://www.w3.org/1999/xlink" id="wave" style="transform:rotate(0deg); transition: 0.3s" viewBox="0 0 1440 100" version="1.1" xmlns="http://www.w3.org/2000/svg"><defs><linearGradient id="sw-gradient-0" x1="0" x2="0" y1="1" y2="0"><stop stop-color="rgba(52, 90, 176, 1)" offset="0%"/><stop stop-color="rgba(52, 90, 176, 1)" offset="100%"/></linearGradient></defs><path style="transform:translate(0, 0px); opacity:1" fill="url(#sw-gradient-0)" d="M0,0L80,11.7C160,23,320,47,480,50C640,53,800,37,960,35C1120,33,1280,47,1440,55C1600,63,1760,67,1920,68.3C2080,70,2240,70,2400,68.3C2560,67,2720,63,2880,55C3040,47,3200,33,3360,26.7C3520,20,3680,20,3840,30C4000,40,4160,60,4320,58.3C4480,57,4640,33,4800,31.7C4960,30,5120,50,5280,51.7C5440,53,5600,37,5760,30C5920,23,6080,27,6240,30C6400,33,6560,37,6720,35C6880,33,7040,27,7200,25C7360,23,7520,27,7680,35C7840,43,8000,57,8160,58.3C8320,60,8480,50,8640,40C8800,30,8960,20,9120,23.3C9280,27,9440,43,9600,45C9760,47,9920,33,10080,25C10240,17,10400,13,10560,11.7C10720,10,10880,10,11040,18.3C11200,27,11360,43,11440,51.7L11520,60L11520,100L11440,100C11360,100,11200,100,11040,100C10880,100,10720,100,10560,100C10400,100,10240,100,10080,100C9920,100,9760,100,9600,100C9440,100,9280,100,9120,100C8960,100,8800,100,8640,100C8480,100,8320,100,8160,100C8000,100,7840,100,7680,100C7520,100,7360,100,7200,100C7040,100,6880,100,6720,100C6560,100,6400,100,6240,100C6080,100,5920,100,5760,100C5600,100,5440,100,5280,100C5120,100,4960,100,4800,100C4640,100,4480,100,4320,100C4160,100,4000,100,3840,100C3680,100,3520,100,3360,100C3200,100,3040,100,2880,100C2720,100,2560,100,2400,100C2240,100,2080,100,1920,100C1760,100,1600,100,1440,100C1280,100,1120,100,960,100C800,100,640,100,480,100C320,100,160,100,80,100L0,100Z"/></svg>