<?xml version="1.0" standalone="no"?>
<svg xmlns:xlink="http://www.w3.org/1999/xlink" id="wave" style="transform:rotate(0deg); transition: 0.3s" viewBox="0 0 1440 220" version="1.1" xmlns="http://www.w3.org/2000/svg"><defs><linearGradient id="sw-gradient-0" x1="0" x2="0" y1="1" y2="0"><stop stop-color="rgba(52, 90, 176, 1)" offset="0%"/><stop stop-color="rgba(52, 90, 176, 1)" offset="100%"/></linearGradient></defs><path style="transform:translate(0, 0px); opacity:1" fill="url(#sw-gradient-0)" d="M0,0L80,25.7C160,51,320,103,480,110C640,117,800,81,960,77C1120,73,1280,103,1440,121C1600,139,1760,147,1920,150.3C2080,154,2240,154,2400,150.3C2560,147,2720,139,2880,121C3040,103,3200,73,3360,58.7C3520,44,3680,44,3840,66C4000,88,4160,132,4320,128.3C4480,125,4640,73,4800,69.7C4960,66,5120,110,5280,113.7C5440,117,5600,81,5760,66C5920,51,6080,59,6240,66C6400,73,6560,81,6720,77C6880,73,7040,59,7200,55C7360,51,7520,59,7680,77C7840,95,8000,125,8160,128.3C8320,132,8480,110,8640,88C8800,66,8960,44,9120,51.3C9280,59,9440,95,9600,99C9760,103,9920,73,10080,55C10240,37,10400,29,10560,25.7C10720,22,10880,22,11040,40.3C11200,59,11360,95,11440,113.7L11520,132L11520,220L11440,220C11360,220,11200,220,11040,220C10880,220,10720,220,10560,220C10400,220,10240,220,10080,220C9920,220,9760,220,9600,220C9440,220,9280,220,9120,220C8960,220,8800,220,8640,220C8480,220,8320,220,8160,220C8000,220,7840,220,7680,220C7520,220,7360,220,7200,220C7040,220,6880,220,6720,220C6560,220,6400,220,6240,220C6080,220,5920,220,5760,220C5600,220,5440,220,5280,220C5120,220,4960,220,4800,220C4640,220,4480,220,4320,220C4160,220,4000,220,3840,220C3680,220,3520,220,3360,220C3200,220,3040,220,2880,220C2720,220,2560,220,2400,220C2240,220,2080,220,1920,220C1760,220,1600,220,1440,220C1280,220,1120,220,960,220C800,220,640,220,480,220C320,220,160,220,80,220L0,220Z"/></svg>